<?xml version="1.0" standalone="no"?>
<!DOCTYPE svg PUBLIC "-//W3C//DTD SVG 20010904//EN"
 "http://www.w3.org/TR/2001/REC-SVG-20010904/DTD/svg10.dtd">
<svg className="bd-placeholder-img rounded-circle img-container" version="1.0" xmlns="http://www.w3.org/2000/svg"
 width="252.000000pt" height="200.000000pt" viewBox="0 0 252.000000 200.000000"
 preserveAspectRatio="xMidYMid meet">

<g transform="translate(0.000000,200.000000) scale(0.100000,-0.100000)"
fill="#000000" stroke="none">
<path d="M0 1000 l0 -1000 1260 0 1260 0 0 883 c-1 875 -1 882 -20 847 -11
-19 -19 -47 -20 -62 0 -15 -4 -29 -9 -33 -5 -3 -18 -37 -28 -76 -14 -55 -23
-73 -40 -80 -28 -11 -46 -45 -40 -77 3 -14 1 -57 -5 -95 -6 -48 -6 -73 1 -80
15 -15 14 -27 -4 -27 -8 0 -15 5 -15 11 0 23 -30 40 -67 37 -30 -2 -41 -9 -51
-30 -16 -35 0 -77 23 -58 7 6 33 10 57 8 39 -3 43 -6 46 -32 4 -36 -18 -93
-29 -75 -6 10 -12 9 -27 -4 -10 -9 -26 -17 -34 -17 -9 0 -18 -6 -21 -12 -4
-10 -7 -10 -18 0 -7 6 -23 12 -36 12 -26 0 -31 15 -8 24 8 3 15 17 15 31 0 22
-4 25 -34 25 -26 0 -38 6 -51 27 -18 26 -18 26 -26 6 -4 -12 -5 -31 -2 -43 5
-19 10 -21 44 -15 33 6 39 4 39 -10 0 -14 -8 -16 -40 -13 -42 4 -52 -6 -43
-40 4 -16 -4 -23 -46 -37 -28 -9 -57 -25 -64 -36 -16 -22 -130 -42 -146 -26
-7 7 -18 7 -33 0 -13 -7 -30 -14 -38 -16 -8 -3 -1 -6 17 -6 17 -1 35 -6 38
-11 9 -15 -60 -4 -85 13 -16 11 -18 16 -8 20 11 4 11 6 0 6 -7 1 -11 5 -8 10
3 5 -2 8 -12 7 -13 -1 -21 16 -37 79 -11 44 -22 82 -25 85 -3 3 7 28 22 55 15
28 28 43 28 35 0 -11 3 -10 11 4 6 10 9 34 6 53 -4 22 0 47 10 68 14 29 14 41
3 95 -7 34 -30 89 -50 123 -24 41 -39 80 -43 114 -12 101 -83 198 -182 245
-35 16 -77 28 -100 28 -23 0 -58 9 -80 20 -46 23 -108 25 -180 6 -78 -20 -115
-43 -183 -112 -34 -35 -81 -73 -103 -85 -23 -11 -38 -23 -35 -26 10 -10 90 45
156 106 62 58 141 106 162 99 5 -2 -13 -14 -40 -26 -53 -24 -187 -155 -177
-172 9 -14 -14 -52 -27 -44 -7 4 -8 3 -4 -4 10 -16 -20 -69 -47 -83 l-22 -12
20 24 c45 52 47 61 4 17 -40 -42 -50 -48 -87 -48 -22 0 -43 -3 -46 -8 -2 -4
14 -6 37 -5 l42 3 -33 -17 c-27 -14 -37 -15 -52 -5 -11 6 -26 9 -34 6 -9 -4
-28 6 -46 24 -16 17 -30 26 -30 20 0 -5 13 -22 28 -38 36 -35 88 -46 164 -34
32 6 58 9 58 7 0 -2 -38 -28 -85 -59 -47 -31 -98 -73 -113 -93 -15 -20 -30
-38 -35 -39 -4 -2 -5 -7 -2 -12 3 -4 -2 -13 -10 -20 -11 -9 -15 -9 -15 -1 0 7
-5 9 -12 5 -7 -5 -5 -11 7 -21 17 -12 17 -13 2 -13 -10 0 -22 10 -27 23 -5 12
-9 16 -9 8 -1 -19 -64 -8 -88 16 -20 20 -46 79 -45 103 1 46 13 231 18 267 l5
41 57 -3 c31 -2 47 -2 35 1 -19 4 -23 12 -23 43 0 45 -31 76 -83 86 -29 6 -36
13 -47 46 -11 32 -20 41 -42 46 -15 3 -28 9 -28 14 0 5 -54 9 -120 9 l-120 0
0 -1000z m1446 889 c19 -11 34 -25 34 -30 0 -6 4 -8 8 -5 22 14 101 -108 116
-179 6 -28 6 -29 -9 -10 -8 11 -20 37 -26 57 -5 21 -14 36 -19 33 -4 -3 -18
10 -30 30 -11 19 -44 55 -72 80 -54 49 -55 57 -2 24z m-756 -412 c0 -12 -120
-131 -125 -125 -4 4 20 34 53 68 54 53 72 68 72 57z m21 -50 c-32 -47 -59 -73
-67 -65 -4 5 83 108 92 108 3 0 -8 -19 -25 -43z m988 -47 c1 -14 -4 -32 -9
-40 -8 -12 -10 -11 -10 6 0 12 -2 43 -5 70 -5 49 -5 49 9 19 9 -16 15 -41 15
-55z m-959 1 c-5 -11 -15 -23 -21 -27 -6 -3 -3 5 6 20 20 30 30 35 15 7z m117
-43 c-3 -8 -6 -5 -6 6 -1 11 2 17 5 13 3 -3 4 -12 1 -19z m-267 -3 c-7 -8 -9
-15 -4 -15 5 0 1 -5 -9 -11 -29 -17 -33 -2 -6 20 29 24 36 26 19 6z m112 -12
c-23 -46 -42 -149 -33 -178 l9 -30 2 30 c1 17 4 24 7 17 3 -7 2 -25 -2 -39 -5
-21 -8 -24 -16 -12 -13 21 -12 -37 1 -62 7 -13 7 -19 0 -19 -5 0 -10 5 -10 11
0 5 -4 8 -9 5 -10 -7 -2 -98 9 -106 5 -3 10 -16 11 -30 3 -21 10 -25 45 -28
27 -2 45 2 54 13 16 19 30 19 30 0 0 -8 5 -15 11 -15 5 0 7 -4 4 -10 -7 -11
-3 -12 18 -4 13 5 14 10 2 38 -8 19 -11 37 -7 40 3 4 0 11 -8 16 -11 7 -12 10
-2 10 8 0 10 5 6 12 -5 8 -2 9 10 5 10 -4 15 -3 11 3 -3 6 -2 10 3 10 6 0 33
15 61 34 60 41 61 38 30 -73 -24 -87 -64 -134 -109 -125 -21 4 -22 3 -5 -5 18
-7 16 -10 -20 -27 -56 -25 -62 -27 -45 -14 13 10 13 11 0 7 -8 -2 -14 -9 -13
-15 2 -6 -15 -21 -37 -33 -25 -14 -40 -30 -40 -42 0 -10 -7 -25 -15 -33 -13
-14 -15 -14 -15 0 0 9 -6 16 -13 16 -15 0 -67 47 -67 60 0 6 -9 10 -20 10 -13
0 -20 7 -20 19 0 14 -10 20 -37 24 -21 4 -47 5 -58 3 -11 -2 -14 -1 -7 1 6 3
12 9 12 14 0 5 11 9 25 9 32 0 32 13 0 30 -17 9 -21 16 -14 21 7 4 3 9 -12 14
l-23 8 29 14 28 15 -24 14 c-13 7 -29 13 -35 14 -12 0 -34 -64 -34 -99 0 -26
-26 -39 -43 -22 -9 10 -8 15 4 25 19 13 7 37 -24 49 -11 4 -21 16 -24 27 -3
11 -14 20 -24 20 -13 0 -19 7 -19 24 0 13 -7 29 -16 37 -14 11 -14 13 0 21 9
5 16 15 16 22 0 8 18 23 40 35 33 17 40 18 40 6 0 -19 21 -19 46 0 18 14 18
14 -6 15 l-25 0 28 28 c17 16 31 23 35 17 11 -15 71 -45 92 -45 18 0 36 54 31
94 -5 35 9 67 27 64 9 -1 22 0 27 4 7 4 9 -8 7 -34 -3 -24 1 -44 8 -51 10 -9
11 -9 6 1 -11 19 13 109 30 116 9 3 12 1 9 -4 -11 -18 -17 -54 -22 -125 -2
-38 -9 -80 -15 -92 -14 -29 -3 -41 22 -25 16 10 20 10 21 0 1 -7 5 5 9 27 5
22 5 57 0 79 -9 42 -5 61 18 89 8 9 12 17 8 17 -3 0 0 14 9 30 9 17 18 30 21
30 2 0 1 -8 -4 -17z m126 -30 c0 -30 -19 -73 -49 -112 -14 -17 -19 -19 -19 -8
0 9 4 18 9 21 4 3 11 19 15 36 4 21 10 29 17 24 7 -4 9 -3 5 4 -5 8 11 62 19
62 2 0 3 -12 3 -27z m-123 -48 c-10 -36 -14 -42 -14 -23 -1 24 18 82 25 76 1
-2 -4 -25 -11 -53z m982 -7 c-3 -7 -5 -2 -5 12 0 14 2 19 5 13 2 -7 2 -19 0
-25z m-47 -47 c0 -6 -12 -23 -26 -38 l-25 -28 23 37 c24 40 28 44 28 29z
m-798 -18 c-6 -2 -10 -8 -7 -13 7 -12 -16 -60 -26 -54 -5 3 -6 -2 -3 -10 3 -8
-3 -19 -15 -26 -14 -7 -21 -7 -21 0 0 5 5 10 10 10 6 0 10 9 10 20 0 11 5 20
11 20 6 0 9 6 6 13 -5 14 21 47 37 46 6 0 6 -3 -2 -6z m70 -55 c-9 -58 -63
-115 -96 -102 -12 5 -2 21 42 70 31 35 57 63 58 64 0 0 -2 -15 -4 -32z m-129
2 c-3 -12 -8 -19 -11 -16 -5 6 5 36 12 36 2 0 2 -9 -1 -20z m-85 -71 c-3 -8
-7 -3 -11 10 -4 17 -3 21 5 13 5 -5 8 -16 6 -23z m92 -50 c0 -6 -5 -7 -12 -3
-8 5 -9 2 -5 -9 3 -10 2 -17 -3 -17 -6 0 -10 8 -10 17 0 15 -2 15 -14 -2 -15
-21 -56 -28 -56 -9 0 7 -6 14 -12 17 -7 2 -10 8 -6 11 3 4 16 -2 28 -14 l21
-21 25 26 c23 24 44 26 44 4z m-294 -256 c16 -17 16 -18 1 -21 -9 -2 -17 -10
-17 -18 0 -19 -12 -18 -32 5 -15 17 -15 20 0 35 21 20 26 20 48 -1z m-1 -173
c3 -5 1 -10 -4 -10 -6 0 -11 5 -11 10 0 6 2 10 4 10 3 0 8 -4 11 -10z"/>
<path d="M570 1169 c0 -5 5 -7 10 -4 6 3 10 8 10 11 0 2 -4 4 -10 4 -5 0 -10
-5 -10 -11z"/>
<path d="M580 1130 c-9 -6 -10 -10 -3 -10 6 0 15 5 18 10 8 12 4 12 -15 0z"/>
<path d="M870 869 c0 -5 5 -7 10 -4 6 3 10 8 10 11 0 2 -4 4 -10 4 -5 0 -10
-5 -10 -11z"/>
<path d="M320 1979 c0 -18 2 -19 15 -9 8 7 15 16 15 21 0 5 -7 9 -15 9 -9 0
-15 -9 -15 -21z"/>
<path d="M2450 1930 c0 -61 3 -72 25 -95 14 -14 30 -25 35 -25 6 0 10 41 10
95 l0 95 -35 0 -35 0 0 -70z"/>
<path d="M503 1779 c-9 -9 -7 -16 9 -29 28 -22 56 -15 54 13 -1 25 -43 36 -63
16z"/>
<path d="M639 1727 c5 -5 21 -7 37 -5 27 3 26 4 -8 9 -22 3 -34 1 -29 -4z"/>
<path d="M718 1733 c7 -3 16 -2 19 1 4 3 -2 6 -13 5 -11 0 -14 -3 -6 -6z"/>
<path d="M2117 1243 c-11 -10 -8 -43 3 -43 6 0 10 11 10 25 0 26 -2 29 -13 18z"/>
</g>
</svg>
