<?xml version="1.0" standalone="no"?>
<!DOCTYPE svg PUBLIC "-//W3C//DTD SVG 20010904//EN"
 "http://www.w3.org/TR/2001/REC-SVG-20010904/DTD/svg10.dtd">
<svg version="1.0" xmlns="http://www.w3.org/2000/svg"
 width="431.000000pt" height="431.000000pt" viewBox="0 0 431.000000 431.000000"
 preserveAspectRatio="xMidYMid meet">

<g transform="translate(0.000000,431.000000) scale(0.100000,-0.100000)"
fill="#000000" stroke="none">
<path d="M3454 4269 c-6 -8 -46 -93 -89 -189 -201 -450 -342 -697 -571 -1003
-85 -114 -124 -148 -51 -44 101 143 70 113 -54 -53 -137 -183 -181 -236 -209
-253 -39 -24 -183 -174 -234 -243 -24 -34 -49 -63 -54 -65 -6 -2 -61 -51 -123
-108 l-111 -105 -21 30 c-28 38 -129 145 -134 141 -2 -2 12 -45 32 -95 19 -50
35 -98 35 -107 0 -24 -27 -18 -50 13 -17 21 -21 36 -17 69 3 26 0 43 -7 46 -7
3 -20 39 -30 80 -24 105 -49 125 -30 25 22 -115 15 -122 -16 -17 -10 35 -19
57 -19 49 -1 -8 8 -45 18 -83 21 -72 17 -81 -17 -44 -20 21 -22 34 -22 125 0
56 -4 102 -9 102 -5 0 -19 -24 -31 -52 l-21 -53 6 53 c5 50 5 52 -18 52 -23 0
-26 -6 -42 -89 -9 -49 -14 -98 -10 -110 5 -15 2 -21 -9 -21 -13 0 -16 13 -15
78 2 64 3 70 9 37 7 -38 7 -38 9 18 1 56 -5 67 -25 47 -5 -5 -19 -7 -31 -4
-16 4 -23 17 -29 52 l-8 47 -11 -80 c-7 -44 -20 -100 -29 -124 -9 -24 -16 -64
-16 -89 0 -25 -3 -42 -6 -39 -4 4 -10 98 -13 209 -4 125 -10 203 -16 203 -23
-1 -38 -62 -38 -152 l0 -92 -33 81 c-37 90 -54 176 -36 187 8 5 7 18 -3 46 -8
22 -14 50 -15 62 0 31 -15 36 -56 21 -43 -15 -65 -4 -76 40 -5 20 -15 32 -25
32 -9 0 -24 7 -34 16 -17 15 -18 15 -23 -7 -7 -31 -10 -76 -7 -114 2 -27 3
-28 12 -10 9 20 8 4 -7 -98 -6 -35 -7 -37 -21 -20 -10 13 -13 14 -10 3 2 -8
-2 -21 -9 -28 -17 -15 -16 -19 -16 88 0 74 -1 79 -8 40 -6 -28 -7 18 -5 125
l5 170 -21 -53 c-22 -55 -39 -60 -39 -11 0 37 -27 50 -46 24 -8 -10 -14 -29
-14 -42 0 -43 -18 -23 -46 50 -38 102 -52 137 -56 137 -2 0 -2 -30 0 -67 5
-93 27 -187 59 -245 27 -49 24 -80 -4 -43 -61 82 -88 196 -98 410 -8 167 -11
188 -36 203 -18 11 -19 9 -19 -40 0 -38 -3 -49 -10 -38 -5 8 -10 34 -10 58 0
24 -5 42 -11 42 -8 0 -10 -34 -7 -116 5 -141 -11 -117 -19 29 -6 94 -7 97 -29
97 -24 0 -24 0 -24 -132 0 -72 -2 -129 -5 -127 -2 3 -20 54 -39 114 -38 121
-44 124 -21 14 9 -41 12 -76 7 -81 -8 -8 -24 71 -61 302 -9 53 -9 51 -8 -31 1
-48 5 -85 10 -82 4 2 8 -13 8 -34 3 -80 8 -124 18 -174 17 -77 7 -70 -18 13
-24 81 -47 255 -60 453 -6 103 -8 115 -10 56 0 -41 -3 -72 -6 -69 -5 4 -11 48
-14 91 -1 11 -6 15 -12 11 -15 -9 -4 -351 15 -459 7 -42 10 -78 6 -80 -11 -7
-40 229 -41 340 -1 55 -4 89 -8 75 -3 -14 -11 -26 -18 -27 -11 -2 -16 23 -27
142 -2 22 -2 -5 0 -60 12 -279 13 -439 4 -390 -17 93 -39 319 -46 477 -4 100
-11 155 -17 151 -14 -8 -1 -361 17 -493 44 -308 129 -650 220 -879 25 -63 44
-116 42 -118 -2 -2 -25 44 -51 102 -27 57 -50 103 -52 101 -9 -9 144 -334 200
-423 13 -21 36 -67 50 -101 39 -98 87 -171 157 -242 36 -36 81 -85 100 -110
19 -25 67 -79 108 -122 l74 -76 -32 -7 c-17 -4 -34 -13 -36 -20 -3 -7 -23 -21
-45 -29 -47 -19 -93 -85 -103 -147 -5 -30 -23 -61 -71 -118 -41 -50 -76 -106
-96 -152 -17 -41 -40 -83 -53 -94 -31 -28 -56 -70 -56 -95 0 -28 11 -25 45 10
15 16 32 27 37 24 4 -3 8 0 8 5 0 16 123 143 184 190 41 32 62 41 92 41 21 0
63 11 92 25 30 14 68 25 85 25 36 -1 161 -53 150 -63 -3 -4 4 -7 17 -7 13 0
46 -14 73 -32 30 -19 65 -33 91 -35 22 -1 73 -7 111 -13 39 -5 81 -9 95 -9 23
0 24 1 5 10 -14 6 -6 8 27 4 30 -4 105 -35 210 -87 200 -98 328 -152 413 -173
76 -19 171 -57 380 -150 227 -101 236 -105 230 -96 -3 5 -21 15 -40 21 -19 6
-35 15 -35 19 0 4 -41 24 -91 46 -50 21 -104 51 -118 66 -15 15 -59 43 -98 63
-68 34 -97 56 -74 56 6 0 45 -14 86 -30 42 -17 80 -28 85 -25 7 4 36 -7 223
-86 37 -16 70 -29 74 -29 15 0 -55 59 -92 77 -22 11 -71 38 -108 59 -73 41
-75 59 -4 26 23 -11 85 -33 137 -50 96 -31 266 -97 285 -111 18 -13 235 -74
241 -68 4 4 1 13 -5 21 -17 20 -1 26 45 16 21 -5 55 -12 74 -15 56 -9 225 -58
228 -66 2 -4 12 -4 24 -1 14 3 19 1 14 -6 -4 -7 -2 -10 6 -7 7 3 87 -15 176
-40 90 -25 169 -45 175 -45 27 0 -15 19 -98 45 -68 21 -85 29 -70 35 17 6 13
10 -23 20 -28 9 -41 18 -40 29 2 10 -14 21 -50 34 -87 32 -49 32 61 1 28 -9
20 24 -12 44 -15 9 -28 21 -29 26 0 6 -41 22 -89 36 -94 28 -140 49 -113 50 8
1 -20 14 -63 29 -43 16 -81 32 -85 36 -4 5 0 6 8 3 68 -24 293 -89 296 -85 2
2 -96 34 -218 71 -286 87 -517 164 -546 183 -13 8 -40 21 -60 28 -50 18 -19
18 42 0 58 -18 69 -19 61 -5 -4 7 3 7 20 0 43 -16 297 -81 302 -77 2 3 -10 10
-27 17 -16 7 -30 16 -30 21 0 4 -19 13 -42 19 -24 7 -52 17 -63 24 -11 7 -38
19 -60 26 -22 7 -58 23 -80 35 -22 13 -75 33 -118 46 -47 13 -77 27 -77 36 0
7 7 13 15 13 21 0 215 91 215 101 0 4 -16 13 -35 19 -61 20 -57 44 17 91 34
22 45 34 37 40 -10 6 -10 13 -1 34 14 31 17 32 -126 -24 -64 -25 -87 -37 -75
-42 21 -7 -82 -33 -111 -28 -14 3 -9 9 20 25 22 11 66 36 99 53 33 18 75 44
93 58 17 13 61 38 96 54 35 16 72 39 81 49 21 24 18 24 -26 6 -19 -7 -47 -16
-64 -20 l-30 -7 38 31 c65 55 37 81 -43 40 -46 -24 -57 -25 -41 -6 9 11 9 15
-1 19 -10 4 -10 8 2 16 8 6 15 25 15 43 0 28 6 36 43 56 48 27 51 42 3 18 -17
-9 -32 -15 -34 -14 -2 2 -15 -5 -29 -14 -15 -10 -61 -31 -103 -48 -42 -17 -98
-42 -126 -55 -27 -14 -49 -23 -49 -21 0 2 53 32 117 66 65 34 146 82 180 106
35 25 68 42 73 39 17 -10 11 -22 -12 -28 -12 -4 -19 -9 -16 -13 8 -8 26 3 187
115 72 49 128 95 136 112 15 29 20 79 8 79 -12 0 -165 -81 -249 -131 -45 -27
-85 -49 -90 -49 -10 0 244 181 289 205 41 22 44 32 21 77 l-16 31 99 100 c111
113 107 114 -24 10 -82 -65 -125 -90 -108 -64 3 6 61 54 128 107 151 119 317
281 317 308 0 16 -10 11 -52 -29 -53 -51 -42 -30 21 38 19 20 31 37 26 37 -6
0 -59 -48 -120 -107 -60 -59 -104 -98 -96 -87 8 10 60 63 115 116 80 77 98 99
87 107 -18 12 -75 -36 -243 -204 -65 -65 -118 -113 -118 -108 0 5 11 20 25 33
13 12 22 26 20 31 -3 4 -1 10 4 13 11 7 74 86 69 86 -2 0 -38 -31 -79 -70 -40
-38 -80 -70 -86 -70 -29 0 -12 48 30 87 194 182 588 606 587 631 -1 4 -27 -21
-59 -55 -32 -35 -63 -63 -68 -63 -5 0 -48 -42 -95 -93 -96 -104 -154 -148
-195 -150 -19 -1 -58 -26 -120 -78 -51 -41 -98 -76 -105 -76 -7 0 -21 -4 -30
-8 -37 -15 -15 18 67 104 77 80 99 111 77 111 -4 0 -15 -6 -23 -12 -7 -7 23
26 69 72 45 47 82 89 82 94 0 4 34 46 75 93 70 80 88 116 45 93 -10 -5 -46
-40 -79 -77 -34 -37 -61 -63 -61 -57 0 5 18 28 40 49 22 21 40 43 40 47 0 16
-38 -7 -87 -55 -29 -28 -55 -48 -59 -45 -3 4 7 26 24 50 82 120 302 514 302
541 0 39 -31 12 -70 -60 -56 -105 -89 -148 -103 -134 -19 19 -31 12 -55 -29
-23 -41 -46 -51 -56 -25 -3 8 -12 15 -20 15 -12 0 -26 -14 -97 -99 -34 -40
-32 -17 6 59 19 41 35 77 35 80 0 15 -38 17 -69 4 -17 -7 -31 -12 -31 -10 0 2
6 19 14 37 31 77 24 79 -15 4 -61 -116 -59 -77 2 46 61 123 121 260 116 266
-2 2 -19 -30 -37 -72 -19 -43 -37 -72 -43 -68 -5 3 -7 1 -3 -5 8 -13 -14 -63
-25 -56 -5 3 -6 -3 -2 -12 5 -13 3 -15 -7 -9 -9 5 -11 4 -6 -4 4 -6 0 -24 -10
-39 -10 -15 -17 -30 -16 -34 1 -5 -2 -8 -8 -8 -5 0 -10 -4 -10 -10 0 -5 -10
-25 -22 -43 -13 -19 -29 -43 -35 -53 -7 -11 -3 6 8 36 32 85 142 289 153 283
5 -3 6 -1 2 5 -4 6 18 66 49 133 30 67 55 125 55 128 0 3 -20 -29 -43 -71 -54
-96 -70 -114 -28 -31 33 67 41 104 18 84 -8 -6 -17 -8 -21 -4 -4 4 -4 -1 0
-11 6 -15 4 -17 -6 -11 -10 6 -12 4 -7 -9 4 -11 -13 -53 -50 -119 -31 -56 -74
-136 -96 -177 -61 -116 -88 -162 -93 -157 -2 2 28 62 67 133 109 197 152 281
131 257 -18 -20 -42 -31 -42 -19 0 2 9 26 20 52 37 85 14 56 -30 -38 -36 -77
-172 -308 -202 -343 -4 -5 29 65 75 155 131 261 251 555 201 489z m-405 -866
c-46 -77 -112 -173 -116 -169 -4 4 128 206 135 206 2 0 -7 -17 -19 -37z
m-2782 -165 c-3 -7 -5 -2 -5 12 0 14 2 19 5 13 2 -7 2 -19 0 -25z m292 -104
c16 -62 7 -67 -13 -8 -18 54 -20 68 -7 60 5 -3 14 -27 20 -52z m88 -71 c-3
-10 -5 -4 -5 12 0 17 2 24 5 18 2 -7 2 -21 0 -30z m-31 -58 c19 -34 23 -46 10
-36 -19 16 -46 63 -46 82 0 16 1 14 36 -46z m-271 -98 c15 -54 25 -101 22
-103 -4 -4 -33 96 -53 181 -16 68 6 13 31 -78z m230 -11 c14 -49 23 -91 21
-94 -7 -7 -37 70 -32 83 2 6 -2 22 -10 36 -12 22 -20 79 -10 68 3 -2 16 -44
31 -93z m118 12 c14 -27 22 -48 17 -48 -8 0 -50 79 -50 95 0 11 2 8 33 -47z
m206 -40 c0 -24 -4 -52 -8 -63 -8 -19 -8 -19 -15 3 -9 27 2 102 15 102 5 0 9
-19 8 -42z m-133 -71 l15 -32 -25 28 c-15 15 -26 33 -26 38 0 18 20 -1 36 -34z
m109 -87 c3 -5 1 -10 -4 -10 -6 0 -11 5 -11 10 0 6 2 10 4 10 3 0 8 -4 11 -10z
m190 -144 c3 -20 1 -26 -7 -18 -5 5 -12 32 -14 59 -4 43 -3 45 6 18 6 -16 12
-43 15 -59z m34 -101 c0 -5 -6 -1 -14 9 -8 11 -15 27 -15 35 1 17 29 -26 29
-44z m-122 -32 c36 -32 84 -75 107 -96 39 -37 39 -37 5 -13 -20 14 -39 26 -43
26 -13 0 -84 62 -116 101 -17 21 -28 39 -25 39 4 0 36 -26 72 -57z m2402 8
c-18 -23 -34 -39 -37 -36 -2 2 10 22 28 45 18 23 35 39 37 36 3 -3 -10 -23
-28 -45z m-29 21 c0 -8 -54 -52 -65 -52 -17 0 -1 32 23 44 31 17 42 19 42 8z
m-455 -732 c-3 -5 -12 -10 -18 -10 -7 0 -6 4 3 10 19 12 23 12 15 0z m-79
-309 c-3 -5 -18 -11 -33 -14 -26 -5 -26 -4 -8 9 21 15 49 19 41 5z m-46 -36
c0 -6 -102 -35 -141 -40 -49 -7 -27 5 48 25 73 19 93 23 93 15z"/>
<path d="M3436 4095 c-9 -26 -7 -32 5 -12 6 10 9 21 6 23 -2 3 -7 -2 -11 -11z"/>
<path d="M291 3754 c0 -11 3 -14 6 -6 3 7 2 16 -1 19 -3 4 -6 -2 -5 -13z"/>
<path d="M391 3624 c0 -11 3 -14 6 -6 3 7 2 16 -1 19 -3 4 -6 -2 -5 -13z"/>
<path d="M720 3433 c0 -21 5 -45 10 -53 7 -11 10 -2 10 32 0 26 -4 50 -10 53
-6 4 -10 -9 -10 -32z"/>
<path d="M1019 3239 c-22 -34 -43 -89 -36 -95 9 -9 59 84 55 103 -3 14 -6 13
-19 -8z"/>
<path d="M2809 3143 c-13 -16 -12 -17 4 -4 16 13 21 21 13 21 -2 0 -10 -8 -17
-17z"/>
<path d="M1117 3091 c-24 -42 -21 -52 4 -13 12 18 20 35 17 37 -2 2 -12 -9
-21 -24z"/>
<path d="M945 3099 c-11 -17 1 -21 15 -4 8 9 8 15 2 15 -6 0 -14 -5 -17 -11z"/>
<path d="M1007 2991 c-4 -17 -3 -21 5 -13 5 5 8 16 6 23 -3 8 -7 3 -11 -10z"/>
<path d="M1255 2850 c-3 -5 -1 -10 4 -10 6 0 11 5 11 10 0 6 -2 10 -4 10 -3 0
-8 -4 -11 -10z"/>
<path d="M3860 2747 c-33 -38 -37 -45 -15 -27 37 30 80 80 68 80 -4 0 -28 -24
-53 -53z"/>
<path d="M1566 2604 c-4 -14 -5 -28 -3 -31 3 -2 8 8 11 23 4 14 5 28 3 31 -3
2 -8 -8 -11 -23z"/>
<path d="M1552 2540 c0 -14 2 -19 5 -12 2 6 2 18 0 25 -3 6 -5 1 -5 -13z"/>
<path d="M3334 1904 c-23 -8 -52 -26 -65 -41 -24 -25 -24 -25 36 5 101 52 111
65 29 36z"/>
<path d="M3455 1794 c-99 -50 -114 -71 -26 -34 41 17 83 39 93 50 26 28 13 25
-67 -16z"/>
<path d="M3285 1720 c-8 -13 15 -13 35 0 12 8 11 10 -7 10 -12 0 -25 -4 -28
-10z"/>
<path d="M3395 1610 c-22 -11 -29 -17 -15 -14 29 8 80 33 65 33 -5 0 -28 -8
-50 -19z"/>
<path d="M3233 1613 c-13 -2 -23 -9 -23 -14 0 -12 10 -11 40 6 25 15 23 16
-17 8z"/>
<path d="M3085 1550 c-8 -13 5 -13 25 0 13 8 13 10 -2 10 -9 0 -20 -4 -23 -10z"/>
<path d="M3150 1310 c0 -5 4 -10 9 -10 6 0 13 5 16 10 3 6 -1 10 -9 10 -9 0
-16 -4 -16 -10z"/>
</g>
</svg>
